<svg width="360" height="336" viewBox="0 0 360 336" fill="none" xmlns="http://www.w3.org/2000/svg">
<path d="M235.575 153.137C234.056 163.422 241.839 174.131 252.135 175.908C262.39 177.709 273.47 170.266 275.706 160.103C269.45 168.621 270.465 181.62 278.017 188.932C285.569 196.244 298.666 196.892 307.061 190.405C315.456 183.918 317.982 171.075 312.733 161.957C321.958 167.024 334.609 164.933 341.808 157.21C348.983 149.446 350.074 136.733 344.281 127.981C338.487 119.229 326.376 115.235 316.356 118.806C326.825 121.821 339.148 115.694 343.015 105.556C346.882 95.4175 341.83 82.7097 331.986 78.1593C322.142 73.6088 309.039 77.7243 303.628 87.1469C314.052 84.4654 320.685 72.2013 317.813 61.8755C314.941 51.5497 303.791 44.5425 293.049 45.6422C282.306 46.7418 272.979 55.2622 270.107 65.6304C273.574 55.8286 269.153 43.9346 260.171 38.7278C251.189 33.521 238.584 35.6923 231.75 43.5805C224.916 51.4686 224.553 64.1362 231.001 72.2447C228.771 61.0682 215.735 53.9694 204.628 56.7762C193.52 59.583 185.482 70.6235 184.796 81.98C184.11 93.3364 189.995 104.495 198.757 111.754C207.518 119.013 218.861 122.701 229.88 123.955C225.459 128.637 222.686 135.152 223.604 141.522C224.522 147.892 229.813 153.617 236.211 154.055C242.626 154.428 249.077 148.311 235.575 153.137Z" fill="url(#paint0_radial_979_10940)"/>
<path fill-rule="evenodd" clip-rule="evenodd" d="M210.9 56.2234C208.802 56.1044 206.69 56.2856 204.643 56.8034C193.538 59.6125 185.5 70.6571 184.812 82.0166C184.125 93.376 190.007 104.537 198.765 111.796C207.523 119.055 218.862 122.743 229.878 123.996C225.458 128.68 222.685 135.196 223.601 141.568C224.482 147.692 229.403 153.22 235.463 154.027C234.474 164.05 242.107 174.231 252.12 175.958C259.688 177.287 267.707 173.576 272.286 167.453C270.388 174.991 272.389 183.553 277.993 188.982C285.543 196.295 298.635 196.941 307.03 190.451C315.424 183.961 317.951 171.114 312.704 161.995C321.926 167.062 334.575 164.968 341.773 157.242C348.947 149.475 350.04 136.759 344.25 128.006C343.397 126.716 342.406 125.53 341.306 124.456C333.611 129.324 323.362 130.378 315.267 126.218C309.365 123.186 305.034 117.666 302.927 111.407C300.391 117.319 295.674 122.378 289.665 124.802C277.833 129.577 263.179 124.282 256.486 113.526C250.12 103.298 251.022 89.4224 257.78 79.372C250.638 88.5572 237.089 92.3598 226.279 88.0127C214.889 83.4326 207.867 70.1768 210.407 58.1559C210.545 57.5038 210.71 56.8592 210.9 56.2234Z" fill="url(#paint1_linear_979_10940)"/>
<ellipse rx="15.593" ry="15.5936" transform="matrix(0.528265 0.84908 -0.849515 0.527565 299.615 110.751)" fill="#4FBE42"/>
<ellipse rx="18.153" ry="18.1537" transform="matrix(0.528265 0.84908 -0.849515 0.527565 323.13 133.126)" fill="url(#paint2_radial_979_10940)"/>
<ellipse rx="33.0478" ry="33.0491" transform="matrix(0.528264 0.84908 -0.849515 0.527565 282.556 92.5844)" fill="url(#paint3_radial_979_10940)"/>
<path fill-rule="evenodd" clip-rule="evenodd" d="M305.208 115.775C289.727 125.238 269.477 120.455 259.876 105.025C251.986 92.3432 253.736 76.3994 263.128 65.7479C263.061 65.7892 262.993 65.8308 262.926 65.8726C247.42 75.5018 242.667 95.871 252.309 111.368C261.951 126.866 282.337 131.623 297.842 121.994C300.66 120.244 303.122 118.14 305.208 115.775Z" fill="url(#paint4_linear_979_10940)"/>
<path fill-rule="evenodd" clip-rule="evenodd" d="M267.079 151.826C265.138 150.163 263.415 148.179 261.993 145.894C257.014 137.892 256.991 128.212 261.086 120.438L266.879 127.426C263.35 127.301 260.637 131.882 262.51 134.824C264.384 137.765 269.724 137.248 271.099 134.003C272.236 135.604 273.378 137.19 274.52 138.775C275.662 140.36 276.803 141.945 277.94 143.546C277.176 144.447 276.372 145.336 275.58 146.212C275.369 146.446 275.158 146.679 274.95 146.911C272.324 148.549 269.701 150.187 267.079 151.826Z" fill="#35A328" fill-opacity="0.34"/>
<ellipse rx="25.6009" ry="25.601" transform="matrix(0.528269 0.849077 -0.849518 0.52756 287.301 130.178)" fill="url(#paint5_radial_979_10940)"/>
<path fill-rule="evenodd" clip-rule="evenodd" d="M272.682 134.873C280.151 146.879 295.944 150.564 307.955 143.104C308.773 142.596 309.553 142.05 310.293 141.468C308.252 145.63 305.055 149.288 300.825 151.915C288.814 159.374 273.022 155.689 265.553 143.684C258.592 132.497 261.316 118.032 271.439 110.077C267.685 117.734 267.843 127.096 272.682 134.873Z" fill="url(#paint6_linear_979_10940)"/>
<path opacity="0.4" d="M233.434 274.498C211.782 274.498 194.229 272.36 194.229 269.723C194.229 267.085 211.782 264.947 233.434 264.947C255.086 264.947 272.639 267.085 272.639 269.723C272.639 272.36 255.086 274.498 233.434 274.498Z" fill="url(#paint7_radial_979_10940)"/>
<path d="M192.539 178.638C199.245 176.544 182.76 183.663 182.341 186.175C178.197 210.742 181.782 228.748 190.816 251.361C193.424 257.967 197.103 264.714 202.272 268.157C204.088 269.367 206.323 267.878 206.463 265.412C207.022 256.106 204.647 248.011 205.438 235.029C205.485 234.378 205.718 236.983 205.438 236.425C195.985 219.117 193.145 209.858 190.816 189.432C190.723 188.595 193.843 179.149 193.284 178.591C193.238 178.638 192.493 178.638 192.539 178.638Z" fill="url(#paint8_linear_979_10940)"/>
<path d="M218.337 118.105C204.32 133.366 193.47 151.559 186.672 171.147C181.829 185.245 179.035 200.506 182.388 215.022C185.74 229.539 196.125 243.079 210.514 246.894C217.08 248.662 224.717 248.057 229.653 243.404C234.356 238.938 235.52 231.819 234.868 225.352C234.216 218.884 232.167 212.65 231.515 206.182C230.398 195.016 233.89 183.43 241.015 174.729C248.14 166.029 258.757 160.306 270.678 159.515C270.026 156.77 269.374 154.071 268.675 151.326C265.788 153.978 261.458 155.281 257.732 153.978C254.007 152.722 251.26 148.581 252.144 144.719C253.029 140.857 257.872 138.298 261.318 140.206C258.896 135.413 256.475 130.621 254.1 125.829C251.539 129.411 248.838 133.087 244.833 134.902C240.829 136.67 235.241 135.693 233.471 131.645C232.307 128.946 233.192 125.782 234.635 123.223C236.451 120.059 239.106 117.361 242.412 115.825C239.525 114.848 236.917 113.173 235.38 110.475C233.378 108.427 231.422 106.334 229.42 104.286C223.18 110.614 218.104 118.059 218.337 118.105Z" fill="url(#paint9_radial_979_10940)"/>
<path fill-rule="evenodd" clip-rule="evenodd" d="M237.156 96.6477C236.597 96.066 236.036 95.4859 235.472 94.9092C228.662 101.812 223.123 109.933 223.377 109.984C208.08 126.633 196.239 146.479 188.819 167.848C183.534 183.227 180.485 199.876 184.144 215.712C185.327 220.833 187.312 225.842 189.988 230.417C192.868 231.583 195.838 232.407 198.874 232.837C207.529 234.101 216.93 231.599 221.938 223.62C226.702 215.967 226.375 205.096 223.939 195.578C222.722 190.819 221.082 186.22 219.441 181.621C217.801 177.022 216.161 172.423 214.944 167.664C210.748 151.228 212.214 133.202 218.946 118.721C223.18 109.615 229.436 101.977 237.156 96.6477Z" fill="url(#paint10_radial_979_10940)"/>
<path opacity="0.54" d="M35.3779 69.5167C37.5414 63.0276 43.0548 57.4457 49.8243 56.4688C56.5939 55.492 64.0614 59.8878 65.3176 66.6559C66.6436 73.6334 62.1771 82.5646 67.7602 86.9605C70.5518 89.1235 74.6693 88.7048 77.6703 87.0302C80.6712 85.3556 95.1874 69.5167 100.771 65.0511C104.33 62.2601 109.355 59.5389 113.053 62.1903C119.335 66.6559 111.448 77.8897 116.124 84.0299C118.078 86.6116 121.847 87.3093 124.987 86.5418C128.128 85.7743 143.9 74.6801 149.135 70.982C151.856 69.0283 154.927 67.0048 158.207 67.4932C162.395 68.0514 165.186 73.3543 163.302 77.1222" stroke="#8B8B8B" stroke-opacity="0.37" stroke-width="13.4895" stroke-miterlimit="10" stroke-linecap="round"/>
<path opacity="0.54" d="M43.2939 133.797C50.2324 132.773 57.0776 123.189 59.1266 121.048C61.4083 118.629 64.9939 118.582 67.2757 120.537C68.7658 121.839 73.8882 130.819 78.5914 132.68C80.5006 133.425 82.5495 134.076 84.5519 133.751C88.3704 133.099 90.8384 129.517 93.8652 127.144C97.3111 124.445 103.039 120.211 106.764 122.723C111.607 125.98 110.862 138.729 121.339 134.355C124.506 133.006 127.253 130.959 129.861 128.679" stroke="#989898" stroke-opacity="0.2" stroke-width="14.7541" stroke-miterlimit="10" stroke-linecap="round"/>
<path opacity="0.54" d="M29.3242 190.561C36.2626 189.537 43.1079 179.953 45.1568 177.812C47.4386 175.393 51.0242 175.346 53.306 177.301C54.7961 178.603 59.9184 187.583 64.6216 189.444C66.5309 190.189 68.5798 190.84 70.5822 190.514C74.4006 189.863 76.8686 186.28 79.8955 183.908C83.3414 181.209 89.0691 176.975 92.7944 179.487C97.6373 182.744 96.8922 195.493 107.37 191.119C110.536 189.77 113.284 187.723 115.891 185.443" stroke="#989898" stroke-opacity="0.2" stroke-width="14.7541" stroke-miterlimit="10" stroke-linecap="round"/>
<path d="M131.005 164.572L228.043 73.4352L250.384 97.1783L153.299 188.312L131.005 164.572Z" fill="url(#paint11_linear_979_10940)"/>
<path fill-rule="evenodd" clip-rule="evenodd" d="M227.98 73.4918L242.353 88.769L145.341 179.842L131.006 164.576L227.98 73.4918Z" fill="url(#paint12_linear_979_10940)"/>
<path d="M131.198 164.542L228.236 73.4051L232.95 79.235L135.866 170.368L131.198 164.542Z" fill="url(#paint13_linear_979_10940)"/>
<path d="M241.066 61.2325L238.081 64.0691C233.658 68.2108 233.438 75.1442 237.582 79.564L244.869 87.3126C249.013 91.7324 255.952 91.951 260.375 87.8092L263.36 84.9727C267.784 80.8309 268.003 73.8975 263.859 69.4777L256.572 61.7292C252.428 57.3094 245.443 57.0877 241.066 61.2325Z" fill="url(#paint14_radial_979_10940)"/>
<path fill-rule="evenodd" clip-rule="evenodd" d="M236.101 77.5794L237.256 78.808C241.401 83.2278 248.339 83.4465 252.763 79.3048L255.748 76.4683C259.553 72.9051 260.247 67.2756 257.728 62.958L263.859 69.478C268.004 73.8978 267.784 80.8312 263.361 84.9729L260.376 87.8094C255.952 91.9511 249.014 91.7324 244.869 87.3126L237.583 79.5641C237.004 78.9468 236.51 78.2804 236.101 77.5794Z" fill="url(#paint15_radial_979_10940)"/>
<path d="M237.237 64.8524L220.935 80.1112L243.276 103.854L259.581 88.5491L237.237 64.8524Z" fill="url(#paint16_linear_979_10940)"/>
<path d="M237.237 64.8524L220.935 80.1111L243.276 103.854L259.581 88.5491L237.237 64.8524Z" fill="url(#paint17_linear_979_10940)"/>
<path fill-rule="evenodd" clip-rule="evenodd" d="M221.114 79.9429L235.656 95.3969L251.772 80.2687L259.581 88.5494L243.276 103.854L220.934 80.1112L221.114 79.9429Z" fill="url(#paint18_linear_979_10940)"/>
<path d="M124.32 192.622L153.138 187.923L130.844 164.183L124.32 192.622Z" fill="#FFECA7"/>
<path fill-rule="evenodd" clip-rule="evenodd" d="M124.372 192.396L145.382 179.665L153.138 187.923L124.32 192.622L124.372 192.396Z" fill="url(#paint19_linear_979_10940)"/>
<path fill-rule="evenodd" clip-rule="evenodd" d="M137.648 190.449L124.32 192.623L127.338 179.47L137.648 190.449Z" fill="#F04534"/>
<path d="M217.326 184.098C211.039 171.489 199.012 151.791 192.725 139.182C191.515 136.763 190.257 134.204 190.304 131.505C190.351 128.806 192.12 125.875 194.774 125.549C196.684 125.317 198.5 126.34 199.99 127.504C204.134 130.714 207.115 135.181 209.815 139.647C216.242 150.349 227.338 168.837 231.156 180.748C232.367 184.471 230.178 188.984 226.499 190.333C225.149 190.845 223.566 190.938 222.355 190.147C219.794 188.472 219.84 187.402 217.326 184.098Z" fill="url(#paint20_linear_979_10940)"/>
<path d="M180.929 117.836C181.84 109.745 185.678 101.889 191.817 95.6503C194.938 92.4898 199.205 89.552 203.895 89.9391C206.959 90.1903 209.718 91.9053 211.489 94.0711C213.712 96.8027 214.663 100.421 213.414 103.605C212.211 106.794 208.592 109.384 204.75 109.373C200.863 109.357 197.257 106.423 196.887 103.057C191.347 107.724 186.32 112.824 180.929 117.836Z" fill="url(#paint21_linear_979_10940)"/>
<path d="M225.899 141.13C223.965 143.119 221.497 143.862 220.401 142.774C219.295 141.701 219.979 139.231 221.912 137.241C223.846 135.252 226.314 134.509 227.41 135.597C228.527 136.655 227.833 139.14 225.899 141.13Z" fill="url(#paint22_radial_979_10940)"/>
<path d="M241.746 157.75C239.812 159.739 237.344 160.482 236.247 159.394C235.141 158.321 235.825 155.851 237.759 153.862C239.692 151.872 242.161 151.129 243.257 152.217C244.373 153.275 243.679 155.76 241.746 157.75Z" fill="url(#paint23_radial_979_10940)"/>
<path d="M229.449 149.985C229.448 150.114 229.571 150.219 229.695 150.195C229.923 150.177 230.151 150.159 230.374 150.116C230.558 150.068 230.712 149.936 230.911 149.898C231.268 149.816 231.599 149.933 231.681 150.29C231.738 150.523 231.622 150.854 231.481 151.061C231.336 151.243 231.058 151.335 230.824 151.456C229.75 151.958 228.597 151.716 228.133 150.905C227.669 150.095 228.022 148.716 228.874 148.129C229.078 147.987 229.45 147.916 229.663 148.016C230.018 148.193 229.931 148.543 229.785 148.854C229.487 149.515 229.442 149.614 229.449 149.985Z" fill="#188055"/>
<path d="M217.204 228.877C219.951 243.626 227.542 257.491 238.485 267.727C239.789 268.984 241.419 270.24 243.235 269.961C244.958 269.682 246.168 267.96 246.401 266.192C246.634 264.47 246.122 262.702 245.656 261.027C241.046 245.301 236.436 229.575 231.826 213.848C230.988 211.057 230.056 208.079 227.681 206.404C224.468 204.124 219.625 205.334 217.111 208.404C214.596 211.475 214.224 215.802 215.062 219.664C215.947 223.526 217.949 227.016 219.486 231.203C219.02 231.296 218.554 231.389 217.204 228.877Z" fill="#B9E9B6"/>
<defs>
<radialGradient id="paint0_radial_979_10940" cx="0" cy="0" r="1" gradientUnits="userSpaceOnUse" gradientTransform="translate(282.222 31.6975) rotate(91.2501) scale(150.284 182.449)">
<stop stop-color="#60C454"/>
<stop offset="1" stop-color="#3FB830"/>
</radialGradient>
<linearGradient id="paint1_linear_979_10940" x1="260.417" y1="189.615" x2="248.102" y2="27.599" gradientUnits="userSpaceOnUse">
<stop stop-color="#38A72A"/>
<stop offset="0.489583" stop-color="#2F9822"/>
<stop offset="1" stop-color="#7AD56F" stop-opacity="0"/>
</linearGradient>
<radialGradient id="paint2_radial_979_10940" cx="0" cy="0" r="1" gradientUnits="userSpaceOnUse" gradientTransform="translate(8.14559 3.25836) rotate(67.4135) scale(31.5093 31.5084)">
<stop stop-color="#4DBD3F"/>
<stop offset="1" stop-color="#34A126"/>
</radialGradient>
<radialGradient id="paint3_radial_979_10940" cx="0" cy="0" r="1" gradientUnits="userSpaceOnUse" gradientTransform="translate(9.30925 11.1715) rotate(40.8702) scale(59.399 59.3993)">
<stop stop-color="#64D356"/>
<stop offset="1" stop-color="#51C143"/>
</radialGradient>
<linearGradient id="paint4_linear_979_10940" x1="275.118" y1="44.0546" x2="245.397" y2="130.197" gradientUnits="userSpaceOnUse">
<stop stop-color="#68D55A"/>
<stop offset="1" stop-color="#35A328"/>
</linearGradient>
<radialGradient id="paint5_radial_979_10940" cx="0" cy="0" r="1" gradientUnits="userSpaceOnUse" gradientTransform="translate(40.7287 47.9437) rotate(-110.982) scale(51.3482 51.3481)">
<stop stop-color="#3FB830"/>
<stop offset="1" stop-color="#61D154"/>
</radialGradient>
<linearGradient id="paint6_linear_979_10940" x1="308.338" y1="147.25" x2="196.043" y2="127.138" gradientUnits="userSpaceOnUse">
<stop stop-color="#35A227"/>
<stop offset="1" stop-color="#81E275"/>
</linearGradient>
<radialGradient id="paint7_radial_979_10940" cx="0" cy="0" r="1" gradientUnits="userSpaceOnUse" gradientTransform="translate(178.067 272.848) rotate(180) scale(117.914 117.551)">
<stop offset="0.00555556" stop-opacity="0.31"/>
<stop offset="0.9972" stop-opacity="0.05"/>
</radialGradient>
<linearGradient id="paint8_linear_979_10940" x1="206.866" y1="220.484" x2="168.508" y2="234.572" gradientUnits="userSpaceOnUse">
<stop stop-color="#6EDB66"/>
<stop offset="0.3752" stop-color="#8BE085"/>
<stop offset="1" stop-color="#B9E9B6"/>
</linearGradient>
<radialGradient id="paint9_radial_979_10940" cx="0" cy="0" r="1" gradientUnits="userSpaceOnUse" gradientTransform="translate(187.184 230.115) rotate(-45.2384) scale(143.834 143.835)">
<stop stop-color="#B8EEB4"/>
<stop offset="0.384682" stop-color="#ADEAA8"/>
<stop offset="0.64617" stop-color="#98E392"/>
<stop offset="1" stop-color="#309A23"/>
</radialGradient>
<radialGradient id="paint10_radial_979_10940" cx="0" cy="0" r="1" gradientUnits="userSpaceOnUse" gradientTransform="translate(174.156 286.01) rotate(-75.8265) scale(175.377 149.83)">
<stop offset="0.5625" stop-color="#B9E9B6"/>
<stop offset="0.744913" stop-color="#7CDD75"/>
</radialGradient>
<linearGradient id="paint11_linear_979_10940" x1="194.588" y1="71.257" x2="186.825" y2="190.495" gradientUnits="userSpaceOnUse">
<stop stop-color="#FED040"/>
<stop offset="1" stop-color="#F9B400"/>
</linearGradient>
<linearGradient id="paint12_linear_979_10940" x1="190.313" y1="71.0394" x2="183.069" y2="182.298" gradientUnits="userSpaceOnUse">
<stop stop-color="#FFDB6A"/>
<stop offset="1" stop-color="#FBC224"/>
</linearGradient>
<linearGradient id="paint13_linear_979_10940" x1="185.423" y1="70.6177" x2="178.747" y2="173.16" gradientUnits="userSpaceOnUse">
<stop stop-color="#FEE081"/>
<stop offset="1" stop-color="#FED85F"/>
</linearGradient>
<radialGradient id="paint14_radial_979_10940" cx="0" cy="0" r="1" gradientUnits="userSpaceOnUse" gradientTransform="translate(239.341 57.2635) rotate(72.7789) scale(34.893 35.219)">
<stop stop-color="#FF8383"/>
<stop offset="1" stop-color="#F04331"/>
</radialGradient>
<radialGradient id="paint15_radial_979_10940" cx="0" cy="0" r="1" gradientUnits="userSpaceOnUse" gradientTransform="translate(239.342 57.2607) rotate(72.7785) scale(34.8961 35.217)">
<stop stop-color="#F4574B" stop-opacity="0"/>
<stop offset="1" stop-color="#DC3423"/>
</radialGradient>
<linearGradient id="paint16_linear_979_10940" x1="215.36" y1="69.5942" x2="246.996" y2="104.746" gradientUnits="userSpaceOnUse">
<stop offset="0.348533" stop-color="#FF974B"/>
<stop offset="1" stop-color="#FF640D"/>
</linearGradient>
<linearGradient id="paint17_linear_979_10940" x1="253.18" y1="84.2488" x2="236.68" y2="63.9342" gradientUnits="userSpaceOnUse">
<stop offset="0.348533" stop-color="#FF974B"/>
<stop offset="0.598958" stop-color="#FF9D4E"/>
<stop offset="0.817708" stop-color="#FEBE59"/>
<stop offset="1" stop-color="#FF974B"/>
</linearGradient>
<linearGradient id="paint18_linear_979_10940" x1="215.358" y1="69.592" x2="246.997" y2="104.745" gradientUnits="userSpaceOnUse">
<stop offset="0.533493" stop-color="#FF974B"/>
<stop offset="1" stop-color="#E43801"/>
</linearGradient>
<linearGradient id="paint19_linear_979_10940" x1="152.95" y1="180.206" x2="125.551" y2="190.987" gradientUnits="userSpaceOnUse">
<stop stop-color="#FBC328"/>
<stop offset="1" stop-color="#FFECA7" stop-opacity="0"/>
</linearGradient>
<linearGradient id="paint20_linear_979_10940" x1="217.352" y1="132.977" x2="224.721" y2="190.841" gradientUnits="userSpaceOnUse">
<stop stop-color="#A9FFA4"/>
<stop offset="1" stop-color="#ADEAA8"/>
</linearGradient>
<linearGradient id="paint21_linear_979_10940" x1="209.624" y1="97.3904" x2="160.295" y2="121.591" gradientUnits="userSpaceOnUse">
<stop stop-color="#6EDB66"/>
<stop offset="0.3752" stop-color="#8BE085"/>
<stop offset="1" stop-color="#B9E9B6"/>
</linearGradient>
<radialGradient id="paint22_radial_979_10940" cx="0" cy="0" r="1" gradientUnits="userSpaceOnUse" gradientTransform="translate(223.909 139.182) rotate(44.2906) scale(4.05988 4.06033)">
<stop offset="0.2083" stop-color="#077145"/>
<stop offset="1" stop-color="#05663E"/>
</radialGradient>
<radialGradient id="paint23_radial_979_10940" cx="0" cy="0" r="1" gradientUnits="userSpaceOnUse" gradientTransform="translate(239.756 155.802) rotate(44.2908) scale(4.05986 4.06032)">
<stop offset="0.2083" stop-color="#077145"/>
<stop offset="1" stop-color="#05663E"/>
</radialGradient>
</defs>
</svg>

